# xmcd
#
# Track frame offsets:
#	183
#	13495
#	25713
#	37995
#	51633
#	65843
#	79908
#	93783
#	104808
#	116858
#	130383
#	145833
#	155983
#	167483
#
# Disc length: 2387
#
# Revision: 6
# Processed by: cddbd v1.5.1PL0 Copyright (c) Steve Scherf et al.
# Submitted via: CDex 1.40Release
# Normalized: r4:TDELIM( - ),TSWAP
#
DISCID=cf09510e
DTITLE=Various Artist - Digital Dejavu- The Acoustic Blues-Gold Collection
DYEAR=1900
DGENRE=Acoustic
TTITLE0=Mississippi John Hurt - Stack O'Lee Blues
TTITLE1=Mississippi John Hurt - Candy Man Blues
TTITLE2=Blind Lemon Jefferson - Jack O'Diamonds
TTITLE3=Blind Lemon Jefferson - Hangman's Blues
TTITLE4=Blind Willie McTell - Atlanta Strut
TTITLE5=Blind Willie McTell - Death Cell Blues
TTITLE6=Leadbelly - The Gallis Pole
TTITLE7=Leadbelly - Good Morning Blues
TTITLE8=Leadbelly - Good Night Irene
TTITLE9=Woody Guthrie - House of the Rising Sun
TTITLE10=Woody Guthrie - Mean Talking Blues
TTITLE11=John Lee Hooker - Dimples
TTITLE12=John Lee Hooker - Boom Boom
TTITLE13=John Lee Hooker - Boogie Chillun
EXTD=ID3G: 99
EXTT0=
EXTT1=
EXTT2=
EXTT3=
EXTT4=
EXTT5=
EXTT6=
EXTT7=
EXTT8=
EXTT9=
EXTT10=
EXTT11=
EXTT12=
EXTT13=
PLAYORDER=
